# xmcd CD database file generated by Grip 2.96
# 
# Track frame offsets:
#       150
#       14383
#       25449
#       38843
#       48417
#       69093
#       86897
#       110959
#       127024
#       145821
#       156944
# 
# Disc length: 2303 seconds
# 
# Revision: 0
# Processed by: cddbd v1.4PL0 Copyright (c) Steve Scherf et al.
# Submitted via: Grip 2.96
# 
DISCID=9a08fd0b
DTITLE=The St. Pete Mountain Boys - Wanted dead or alive
DYEAR=1900
DGENRE=
TTITLE0=Mornings were sunny
TTITLE1=Time to leave
TTITLE2=Lullaby
TTITLE3=Skyway breakdown
TTITLE4=Mr. American
TTITLE5=Black dog hill
TTITLE6=Do what it takes
TTITLE7=Guinessis
TTITLE8=The Slave's Story
TTITLE9=Keep this train a-rollin
TTITLE10=Easy way
EXTD=
EXTT0=
EXTT1=
EXTT2=
EXTT3=
EXTT4=
EXTT5=
EXTT6=
EXTT7=
EXTT8=
EXTT9=
EXTT10=
PLAYORDER=
